<svg width="31" height="31" viewBox="0 0 31 31" fill="none" xmlns="http://www.w3.org/2000/svg">
<path d="M26.8332 19.4114L21.1127 16.8479C20.8535 16.7368 20.5707 16.6922 20.2899 16.718C20.0091 16.7438 19.7392 16.8392 19.5046 16.9956C19.4808 17.011 19.4581 17.028 19.4368 17.0465L16.447 19.5894C16.4159 19.6063 16.3814 19.6158 16.3461 19.6171C16.3108 19.6183 16.2757 19.6114 16.2435 19.5967C14.3218 18.6691 12.331 16.6905 11.3998 14.7953C11.3843 14.7637 11.3762 14.7289 11.3762 14.6936C11.3762 14.6584 11.3843 14.6236 11.3998 14.5919L13.9512 11.5646C13.9695 11.5422 13.9865 11.5187 14.0021 11.4943C14.1563 11.2588 14.2495 10.9886 14.2732 10.708C14.2969 10.4275 14.2503 10.1454 14.1377 9.8874L11.5923 4.17662C11.4478 3.83951 11.1978 3.55837 10.8799 3.3754C10.562 3.19243 10.1933 3.1175 9.82918 3.16186C8.24676 3.36989 6.79422 4.147 5.74302 5.34796C4.69181 6.54893 4.11387 8.09156 4.11719 9.6876C4.11719 19.1692 11.8309 26.8829 21.3125 26.8829C22.9085 26.886 24.451 26.3079 25.6519 25.2568C26.8528 24.2056 27.63 22.7532 27.8382 21.1709C27.8825 20.8085 27.8086 20.4415 27.6275 20.1245C27.4464 19.8075 27.1678 19.5574 26.8332 19.4114ZM21.3125 25.4298C12.6325 25.4298 5.57031 18.3676 5.57031 9.6876C5.56626 8.44509 6.01473 7.24361 6.83192 6.30764C7.64911 5.37167 8.77912 4.76525 10.0108 4.60166H10.0387C10.0875 4.60257 10.1349 4.61821 10.1746 4.64651C10.2144 4.67482 10.2447 4.71448 10.2615 4.7603L12.8166 10.465C12.8311 10.4967 12.8387 10.5312 12.8387 10.5661C12.8387 10.601 12.8311 10.6355 12.8166 10.6672L10.2603 13.7019C10.2413 13.7236 10.2239 13.7467 10.2082 13.7709C10.0482 14.0151 9.95405 14.2964 9.93475 14.5877C9.91544 14.879 9.97168 15.1703 10.098 15.4335C11.1721 17.6326 13.3881 19.8316 15.6114 20.9057C15.8761 21.0314 16.1689 21.0862 16.4611 21.065C16.7533 21.0438 17.0351 20.9472 17.2789 20.7846C17.3019 20.7689 17.3249 20.7519 17.3467 20.7338L20.3353 18.1908C20.3648 18.1749 20.3974 18.1657 20.4308 18.1636C20.4643 18.1615 20.4978 18.1666 20.529 18.1787L26.2507 20.7422C26.2974 20.7621 26.3367 20.7962 26.363 20.8397C26.3893 20.8832 26.4013 20.9338 26.3972 20.9844C26.2345 22.2167 25.6286 23.3476 24.6929 24.1657C23.7571 24.9838 22.5555 25.4331 21.3125 25.4298Z" fill="#A5A5A5"/>
</svg>
