<svg width="37" height="37" viewBox="0 0 37 37" fill="none" xmlns="http://www.w3.org/2000/svg">
<g clip-path="url(#clip0_24_176)">
<path fill-rule="evenodd" clip-rule="evenodd" d="M18.5 20.8126C20.1355 20.8126 21.704 20.1629 22.8605 19.0064C24.017 17.8499 24.6667 16.2814 24.6667 14.6459C24.6667 13.0104 24.017 11.4419 22.8605 10.2854C21.704 9.12895 20.1355 8.47925 18.5 8.47925C16.8645 8.47925 15.296 9.12895 14.1395 10.2854C12.983 11.4419 12.3333 13.0104 12.3333 14.6459C12.3333 16.2814 12.983 17.8499 14.1395 19.0064C15.296 20.1629 16.8645 20.8126 18.5 20.8126ZM18.5 19.2709C19.1074 19.2709 19.7088 19.1513 20.2699 18.9189C20.831 18.6864 21.3409 18.3458 21.7704 17.9163C22.1998 17.4868 22.5405 16.977 22.7729 16.4158C23.0054 15.8547 23.125 15.2533 23.125 14.6459C23.125 14.0386 23.0054 13.4371 22.7729 12.876C22.5405 12.3149 22.1998 11.805 21.7704 11.3755C21.3409 10.9461 20.831 10.6054 20.2699 10.373C19.7088 10.1405 19.1074 10.0209 18.5 10.0209C17.2734 10.0209 16.097 10.5082 15.2296 11.3755C14.3623 12.2429 13.875 13.4193 13.875 14.6459C13.875 15.8725 14.3623 17.0489 15.2296 17.9163C16.097 18.7836 17.2734 19.2709 18.5 19.2709Z" fill="#AFAFAF"/>
<path fill-rule="evenodd" clip-rule="evenodd" d="M33.9167 18.4999C33.9167 27.0145 27.0146 33.9166 18.5 33.9166C9.98537 33.9166 3.08333 27.0145 3.08333 18.4999C3.08333 9.98529 9.98537 3.08325 18.5 3.08325C27.0146 3.08325 33.9167 9.98529 33.9167 18.4999ZM25.9231 30.2243C23.7041 31.6336 21.1287 32.3798 18.5 32.3749C15.8085 32.3798 13.1744 31.5974 10.9219 30.1241C10.7369 29.8928 10.5494 29.6539 10.3592 29.4072C10.1387 29.1183 10.0197 28.7647 10.0208 28.4013C10.0208 27.5711 10.6175 26.875 11.4153 26.7586C16.6916 25.9878 20.3246 26.0541 25.6079 26.7856C25.9903 26.8415 26.3396 27.0337 26.5916 27.3267C26.8435 27.6198 26.9812 27.994 26.9792 28.3805C26.9792 28.7505 26.852 29.1097 26.6223 29.3903C26.3854 29.6785 26.1523 29.9566 25.9231 30.2243ZM28.5093 28.1091C28.3859 26.6661 27.2906 25.4621 25.8191 25.2586C20.4109 24.5101 16.6307 24.4384 11.1925 25.2331C9.7125 25.449 8.62177 26.6638 8.49227 28.1107C6.00658 25.5292 4.6201 22.0836 4.62499 18.4999C4.62499 10.8371 10.8371 4.62492 18.5 4.62492C26.1628 4.62492 32.375 10.8371 32.375 18.4999C32.3799 22.0828 30.994 25.5278 28.5093 28.1091Z" fill="#AFAFAF"/>
</g>
<defs>
<clipPath id="clip0_24_176">
<rect width="37" height="37" fill="white"/>
</clipPath>
</defs>
</svg>
